<svg width="361" height="361" viewBox="0 0 361 361" fill="none" xmlns="http://www.w3.org/2000/svg">
<path d="M4.72499 9.7075L6.5925 7.5925C10.4668 3.71852 15.6216 1.39132 21.0897 1.04749C26.5578 0.703665 31.9634 2.36684 36.2925 5.725L38.4075 7.5925L180 149.162L321.592 7.5925C323.668 5.44352 326.151 3.72942 328.896 2.55022C331.641 1.37101 334.593 0.750321 337.581 0.72436C340.569 0.698399 343.531 1.26768 346.296 2.399C349.062 3.53032 351.574 5.20102 353.686 7.3136C355.799 9.42619 357.47 11.9384 358.601 14.7035C359.732 17.4687 360.302 20.4315 360.276 23.419C360.25 26.4066 359.629 29.359 358.45 32.1041C357.271 34.8492 355.556 37.3319 353.408 39.4075L211.838 181L353.408 322.592C357.281 326.467 359.609 331.622 359.952 337.09C360.296 342.558 358.633 347.963 355.275 352.293L353.408 354.408C349.533 358.281 344.378 360.609 338.91 360.953C333.442 361.296 328.037 359.633 323.707 356.275L321.592 354.408L180 212.837L38.4075 354.408C34.1639 358.506 28.4804 360.774 22.581 360.723C16.6815 360.671 11.0383 358.305 6.86657 354.133C2.69489 349.962 0.328585 344.318 0.277321 338.419C0.226056 332.52 2.49394 326.836 6.5925 322.592L148.162 181L6.5925 39.4075C2.71852 35.5332 0.391314 30.3784 0.0474875 24.9103C-0.296339 19.4422 1.36684 14.0366 4.72499 9.7075L6.5925 7.5925L4.72499 9.7075Z" fill="black"/>
</svg>
