<svg width="396" height="278" viewBox="0 0 396 278" fill="none" xmlns="http://www.w3.org/2000/svg">
<path d="M20.25 237.75H375.75C380.784 237.756 385.626 239.683 389.286 243.139C392.946 246.594 395.149 251.317 395.444 256.343C395.739 261.368 394.104 266.316 390.873 270.176C387.642 274.036 383.059 276.517 378.061 277.112L375.75 277.25H20.25C15.2161 277.244 10.3743 275.317 6.71395 271.861C3.05356 268.406 0.850829 263.683 0.555821 258.657C0.260813 253.632 1.89579 248.684 5.1267 244.824C8.35761 240.964 12.9406 238.483 17.9392 237.888L20.25 237.75H375.75H20.25ZM20.25 119.25L375.75 119.211C380.784 119.216 385.626 121.144 389.286 124.599C392.946 128.055 395.149 132.778 395.444 137.803C395.739 142.828 394.104 147.776 390.873 151.637C387.642 155.497 383.059 157.978 378.061 158.572L375.75 158.711L20.25 158.75C15.2161 158.744 10.3743 156.817 6.71395 153.361C3.05356 149.906 0.850829 145.183 0.555821 140.157C0.260813 135.132 1.89579 130.184 5.1267 126.324C8.35761 122.464 12.9406 119.983 17.9392 119.388L20.25 119.25L375.75 119.211L20.25 119.25ZM20.25 0.75H375.75C380.784 0.755583 385.626 2.68311 389.286 6.13875C392.946 9.59439 395.149 14.3173 395.444 19.3425C395.739 24.3678 394.104 29.316 390.873 33.1762C387.642 37.0364 383.059 39.5172 378.061 40.1118L375.75 40.25H20.25C15.2161 40.2444 10.3743 38.3169 6.71395 34.8612C3.05356 31.4056 0.850829 26.6827 0.555821 21.6575C0.260813 16.6322 1.89579 11.684 5.1267 7.82381C8.35761 3.96361 12.9406 1.4828 17.9392 0.888249L20.25 0.75H375.75H20.25Z" fill="black"/>
</svg>
